<svg xmlns="http://www.w3.org/2000/svg" viewBox="0 0 60 60"><defs><style>.cls-1{fill:#ffc247;}.cls-2{fill:#ffe45c;}.cls-3{fill:#ffda45;}.cls-4{opacity:0.54;}.cls-5{fill:#fff;}.cls-6{fill:#2b1505;}</style></defs><title>8-Email</title><g id="_8-Email" data-name="8-Email"><g id="_Group_" data-name="&lt;Group&gt;"><path class="cls-1" d="M57,12l.24-.24A5.944,5.944,0,0,1,59,16V44a5.944,5.944,0,0,1-1.76,4.24L57,48,36,27l-.06-.08Z"/><path class="cls-1" d="M3,48l-.24.24A5.944,5.944,0,0,1,1,44V16a5.944,5.944,0,0,1,1.76-4.24L3,12,24.06,26.92,24,27Z"/><path class="cls-2" d="M57,48l.24.24A5.944,5.944,0,0,1,53,50H7a5.944,5.944,0,0,1-4.24-1.76L3,48,24,27l.06-.08L27,29a4.38,4.38,0,0,0,3,1,4.38,4.38,0,0,0,3-1l2.94-2.08L36,27Z"/><path class="cls-2" d="M2.76,11.76A5.944,5.944,0,0,1,7,10H53a5.944,5.944,0,0,1,4.24,1.76L57,12,35.94,26.92,33,29a4.38,4.38,0,0,1-3,1,4.38,4.38,0,0,1-3-1l-2.94-2.08L3,12Z"/><path class="cls-1" d="M27,33a4.38,4.38,0,0,0,3,1,4.38,4.38,0,0,0,3-1l2.94-2.08,2.33-1.65L36,27l-.06-.08L33,29a4.38,4.38,0,0,1-3,1,4.38,4.38,0,0,1-3-1l-2.94-2.08L24,27l-2.27,2.27,2.33,1.65Z"/><path class="cls-3" d="M55,46H5L3,48l-.24.24A5.944,5.944,0,0,0,7,50H53a5.944,5.944,0,0,0,4.24-1.76L57,48Z"/><g class="cls-4"><path class="cls-5" d="M13.616,10H7a5.944,5.944,0,0,0-4.24,1.76L3,12l4.862,3.444-.1-.219C9.252,11.989,11.323,10,13.616,10Z"/></g><path class="cls-6" d="M57.951,11.056A6.919,6.919,0,0,0,53,9H7a7.009,7.009,0,0,0-7,7V44a7.008,7.008,0,0,0,7,7H53a7.008,7.008,0,0,0,7-7V16A6.913,6.913,0,0,0,57.951,11.056ZM53,11a4.945,4.945,0,0,1,2.617.754L32.422,28.184a1.1,1.1,0,0,0-.118.1A3.461,3.461,0,0,1,30,29a3.478,3.478,0,0,1-2.293-.707.954.954,0,0,0-.129-.109L4.383,11.754A4.937,4.937,0,0,1,7,11ZM2,16a4.94,4.94,0,0,1,.9-2.847l19.63,13.905-19.7,19.7A4.947,4.947,0,0,1,2,44ZM7,49a4.936,4.936,0,0,1-2.756-.83l19.94-19.939,2.185,1.547A5.432,5.432,0,0,0,30,31a5.432,5.432,0,0,0,3.631-1.222l2.185-1.547,19.941,19.94A4.947,4.947,0,0,1,53,49Zm51-5a4.936,4.936,0,0,1-.83,2.756l-19.7-19.7,19.63-13.9A4.94,4.94,0,0,1,58,16Z"/></g></g></svg>